<svg xmlns="http://www.w3.org/2000/svg" width="40" height="40" viewBox="0 0 40 40">
  <g id="Groupe_34" data-name="Groupe 34" transform="translate(-841 -4910)">
    <circle id="Ellipse_16" data-name="Ellipse 16" cx="20" cy="20" r="20" transform="translate(841 4910)" fill="#fd980e"/>
    <path id="Icon_awesome-instagram" data-name="Icon awesome-instagram" d="M10.371,7.291a5.318,5.318,0,1,0,5.318,5.318A5.31,5.31,0,0,0,10.371,7.291Zm0,8.776a3.457,3.457,0,1,1,3.457-3.457A3.464,3.464,0,0,1,10.371,16.066Zm6.776-8.993a1.24,1.24,0,1,1-1.24-1.24A1.238,1.238,0,0,1,17.147,7.073Zm3.522,1.259a6.139,6.139,0,0,0-1.676-4.346,6.179,6.179,0,0,0-4.346-1.676c-1.713-.1-6.846-.1-8.558,0A6.17,6.17,0,0,0,1.743,3.981,6.159,6.159,0,0,0,.068,8.328c-.1,1.713-.1,6.846,0,8.558a6.139,6.139,0,0,0,1.676,4.346,6.187,6.187,0,0,0,4.346,1.676c1.713.1,6.846.1,8.558,0a6.139,6.139,0,0,0,4.346-1.676,6.179,6.179,0,0,0,1.676-4.346C20.766,15.173,20.766,10.045,20.669,8.332ZM18.457,18.723a3.5,3.5,0,0,1-1.972,1.972c-1.365.542-4.605.417-6.114.417s-4.753.12-6.114-.417a3.5,3.5,0,0,1-1.972-1.972c-.542-1.365-.417-4.605-.417-6.114s-.12-4.753.417-6.114A3.5,3.5,0,0,1,4.256,4.523c1.365-.542,4.605-.417,6.114-.417s4.753-.12,6.114.417a3.5,3.5,0,0,1,1.972,1.972c.542,1.365.417,4.605.417,6.114S19,17.362,18.457,18.723Z" transform="translate(851.005 4917.762)" fill="#fff"/>
  </g>
</svg>
