<svg xmlns="http://www.w3.org/2000/svg" width="40" height="40" viewBox="0 0 40 40">
  <g id="Groupe_33" data-name="Groupe 33" transform="translate(-894 -4910)">
    <circle id="Ellipse_17" data-name="Ellipse 17" cx="20" cy="20" r="20" transform="translate(894 4910)" fill="#fd980e"/>
    <path id="Icon_awesome-linkedin-in" data-name="Icon awesome-linkedin-in" d="M4.641,20.736H.343V6.892h4.3ZM2.49,5A2.5,2.5,0,1,1,4.979,2.49,2.511,2.511,0,0,1,2.49,5ZM20.731,20.736h-4.29V14c0-1.606-.032-3.666-2.235-3.666-2.235,0-2.578,1.745-2.578,3.55v6.855H7.334V6.892h4.123V8.78h.06a4.517,4.517,0,0,1,4.067-2.236c4.351,0,5.151,2.865,5.151,6.586v7.6Z" transform="translate(904 4920)" fill="#fff"/>
  </g>
</svg>
