<svg xmlns="http://www.w3.org/2000/svg" width="40" height="40" viewBox="0 0 40 40">
  <g id="Groupe_39" data-name="Groupe 39" transform="translate(-981 -4699)">
    <circle id="Ellipse_18" data-name="Ellipse 18" cx="20" cy="20" r="20" transform="translate(981 4699)" fill="#fd980e"/>
    <path id="Icon_akar-youtube-fill" data-name="Icon akar-youtube-fill" d="M20.247,8.157a2.4,2.4,0,0,0-.66-1.094,2.628,2.628,0,0,0-1.153-.639C16.816,6,10.334,6,10.334,6a66.019,66.019,0,0,0-8.09.4,2.723,2.723,0,0,0-1.153.655,2.5,2.5,0,0,0-.67,1.1A25.064,25.064,0,0,0,0,12.89a25.019,25.019,0,0,0,.42,4.734,2.436,2.436,0,0,0,.668,1.093,2.667,2.667,0,0,0,1.155.64c1.64.426,8.091.426,8.091.426a66.17,66.17,0,0,0,8.1-.4,2.628,2.628,0,0,0,1.153-.639,2.4,2.4,0,0,0,.659-1.094,24.452,24.452,0,0,0,.432-4.735,22.9,22.9,0,0,0-.431-4.753ZM8.273,15.84V9.94l5.394,2.95L8.273,15.84Z" transform="translate(991.001 4706.007)" fill="#fff"/>
  </g>
</svg>
